<?xml version="1.0" encoding="UTF-8" standalone="no"?>
<!-- Created with Inkscape (http://www.inkscape.org/) -->

<svg
   xmlns:dc="http://purl.org/dc/elements/1.1/"
   xmlns:cc="http://creativecommons.org/ns#"
   xmlns:rdf="http://www.w3.org/1999/02/22-rdf-syntax-ns#"
   xmlns:svg="http://www.w3.org/2000/svg"
   xmlns="http://www.w3.org/2000/svg"
   xmlns:sodipodi="http://sodipodi.sourceforge.net/DTD/sodipodi-0.dtd"
   xmlns:inkscape="http://www.inkscape.org/namespaces/inkscape"
   width="297mm"
   height="210mm"
   viewBox="0 0 1052.3622 744.09448"
   id="svg2"
   version="1.1"
   inkscape:version="0.91 r"
   sodipodi:docname="loopDetection.svg">
  <defs
     id="defs4">
    <marker
       inkscape:isstock="true"
       style="overflow:visible;"
       id="marker5405"
       refX="0.0"
       refY="0.0"
       orient="auto"
       inkscape:stockid="Arrow1Lend">
      <path
         transform="scale(0.8) rotate(180) translate(12.5,0)"
         style="fill-rule:evenodd;stroke:#000000;stroke-width:1pt;stroke-opacity:1;fill:#000000;fill-opacity:1"
         d="M 0.0,0.0 L 5.0,-5.0 L -12.5,0.0 L 5.0,5.0 L 0.0,0.0 z "
         id="path5407" />
    </marker>
  </defs>
  <sodipodi:namedview
     id="base"
     pagecolor="#ffffff"
     bordercolor="#666666"
     borderopacity="1.0"
     inkscape:pageopacity="0.0"
     inkscape:pageshadow="2"
     inkscape:zoom="0.66415557"
     inkscape:cx="566.38336"
     inkscape:cy="313.36577"
     inkscape:document-units="px"
     inkscape:current-layer="layer1"
     showgrid="false"
     inkscape:window-width="1600"
     inkscape:window-height="825"
     inkscape:window-x="0"
     inkscape:window-y="24"
     inkscape:window-maximized="1" />
  <metadata
     id="metadata7">
    <rdf:RDF>
      <cc:Work
         rdf:about="">
        <dc:format>image/svg+xml</dc:format>
        <dc:type
           rdf:resource="http://purl.org/dc/dcmitype/StillImage" />
        <dc:title></dc:title>
      </cc:Work>
    </rdf:RDF>
  </metadata>
  <g
     inkscape:label="Calque 1"
     inkscape:groupmode="layer"
     id="layer1"
     transform="translate(0,-308.26772)">
    <path
       style="fill:none;fill-rule:evenodd;stroke:#000000;stroke-width:1px;stroke-linecap:butt;stroke-linejoin:miter;stroke-opacity:1"
       d="m 206.27697,484.72411 c 1.89061,7.56242 0.85129,4.05953 3.01135,10.5397 0.50189,1.50567 1.28121,2.94585 1.50567,4.51701 0.28391,1.98739 0,4.01513 0,6.02269 0,3.99609 0,8.04928 0,12.04537 0,15.05671 0,30.11343 0,45.17014 0,5.52079 0,11.04159 0,16.56238 0,0.50189 0.35489,1.15079 0,1.50568 -0.35489,0.35489 -1.15078,0.35489 -1.50567,0 -0.35489,-0.35489 0.35489,-1.15079 0,-1.50568 -2.00757,-2.00756 -1.50568,2.50946 -1.50568,-1.50567 0,-2.1047 0.31543,-5.63577 0,-7.52835 -0.34019,-2.0412 -1.249,-3.96932 -1.50567,-6.02269 -0.249,-1.99206 0,-4.01512 0,-6.02268 0,-2.50946 0,-5.01891 0,-7.52836 0,-4.01512 0,-8.03025 0,-12.04537 0,-4.51702 -0.25056,-9.04098 0,-13.55104 1.89365,-34.08558 1.50567,4.16819 1.50567,-24.09075 0,-2.50945 0.2272,-5.02921 0,-7.52835 -0.27639,-3.04034 -2.10439,-6.04043 -1.50567,-9.03403 0.49215,-2.46072 3.22591,-3.87085 4.51702,-6.02269 1.0697,-1.78284 -2.36919,-3.01134 1.50567,-3.01134 0.50189,0 1.05676,-0.22445 1.50567,0 0.63485,0.31743 0.87082,1.18825 1.50567,1.50567 0.4489,0.22446 1.02954,-0.15871 1.50567,0 1.06467,0.35489 1.96935,1.08888 3.01134,1.50567 4.44708,1.77883 13.57755,4.14281 18.06806,4.51702 3.5011,0.29176 7.05729,-0.46432 10.5397,0 4.10239,0.54698 7.93502,2.52777 12.04537,3.01134 4.48608,0.52777 9.03403,0 13.55104,0 4.01513,0 8.03025,0 12.04537,0 4.51702,0 9.04099,-0.25056 13.55105,0 4.53781,0.2521 9.01322,1.25357 13.55104,1.50567 4.51006,0.25056 9.03403,0 13.55104,0 4.51701,0 9.03403,0 13.55104,0 13.55104,0 27.10209,0 40.65313,0 4.01512,0 8.05775,-0.46913 12.04537,0 4.59551,0.54065 8.95553,2.4707 13.55104,3.01135 3.98762,0.46913 8.03025,0 12.04537,0 8.53214,0 17.06428,0 25.59641,0 25.09453,0 50.18905,0 75.28357,0 6.52458,0 13.04915,0 19.57373,0 2.00756,0 4.01512,0 6.02268,0 1.00378,0 2.02706,0.19685 3.01134,0 1.5563,-0.31126 2.97729,-1.12074 4.51702,-1.50568 1.27471,-0.31867 4.4594,0 6.02268,0 4.01513,0 8.03025,0 12.04537,0 1.50568,0 3.03183,0.24753 4.51702,0 11.89084,-1.9818 -2.71042,-1.50567 9.03403,-1.50567 3.51323,0 7.02646,0 10.5397,0 0.50189,0 1.15078,-0.35489 1.50567,0 0.35489,0.35489 0,1.00378 0,1.50567 0,0.50189 0,1.00378 0,1.50568 0,2.00756 0.28391,4.0353 0,6.02268 -0.29265,2.04855 -1.29977,3.96361 -1.50567,6.02269 -0.29964,2.99639 0,6.02268 0,9.03402 0,14.05294 0,28.10587 0,42.1588 0,5.5208 0.52342,11.06646 0,16.56239 -0.48526,5.09524 -2.41332,9.97347 -3.01135,15.05671 -0.41049,3.48917 0,7.02647 0,10.5397 0,2.50945 0.49215,5.06764 0,7.52836 -0.0984,0.49214 -1.00378,0 -1.50567,0 0,0.50189 0,1.00378 0,1.50567"
       id="path6494"
       inkscape:connector-curvature="0" />
    <path
       style="fill:none;fill-rule:evenodd;stroke:#000000;stroke-width:1px;stroke-linecap:butt;stroke-linejoin:miter;stroke-opacity:1"
       d="m 301.13427,490.7468 c 0,22.58507 0,45.17014 0,67.75521"
       id="path6496"
       inkscape:connector-curvature="0" />
    <path
       style="fill:none;fill-rule:evenodd;stroke:#000000;stroke-width:1px;stroke-linecap:butt;stroke-linejoin:miter;stroke-opacity:1"
       d="m 492.35453,498.27515 c 0.50189,2.00756 1.21302,3.97414 1.50567,6.02269 0.21293,1.49054 0,3.01134 0,4.51701 0,2.00756 0,4.01512 0,6.02269 0,9.32098 0,9.77125 0,19.57372 0,8.53214 0,17.06428 0,25.59642 0,5.0189 0.31307,10.04758 0,15.05671 -0.19044,3.04694 -1.2019,5.9963 -1.50567,9.03403 -0.29964,2.9964 0,6.02268 0,9.03403 0,1.23269 -0.32519,6.5528 0,7.52835 1.73012,5.19037 1.50567,1.11535 1.50567,4.51702"
       id="path6498"
       inkscape:connector-curvature="0" />
    <path
       style="fill:none;fill-rule:evenodd;stroke:#000000;stroke-width:1px;stroke-linecap:butt;stroke-linejoin:miter;stroke-opacity:1"
       d="m 405.02559,386.85547 c 0,7.02647 0,14.05294 0,21.0794 0,1.00378 0.19686,2.02706 0,3.01134 -0.31126,1.5563 -1.28122,2.94585 -1.50567,4.51702 -0.28392,1.98738 0.2217,4.0274 0,6.02268 -0.56522,5.087 -2.50206,9.96382 -3.01135,15.05672 -0.2497,2.497 0.27713,5.03425 0,7.52835 -0.22852,2.05669 -1.249,3.96932 -1.50567,6.02269 -2.57934,20.63473 2.674,-6.17897 -1.50567,10.5397 -0.24345,0.97381 0,2.00756 0,3.01134 0,2.00756 0,4.01513 0,6.02269 0,5.52079 0,11.04159 0,16.56238"
       id="path6500"
       inkscape:connector-curvature="0" />
    <path
       style="fill:none;fill-rule:evenodd;stroke:#000000;stroke-width:1px;stroke-linecap:butt;stroke-linejoin:miter;stroke-opacity:1"
       d="m 275.53785,650.34796 c 0.50189,0 1.50568,0.50189 1.50568,0 0,-1.12226 -1.28558,-1.91088 -1.50568,-3.01135 -0.29528,-1.47643 0.24753,-3.03182 0,-4.51701 -2.14051,-12.84311 -1.50567,5.1928 -1.50567,-10.5397 -0.25667,-2.05337 -1.249,-3.96932 -1.50567,-6.02268 -0.49801,-3.98412 0.56783,-8.07061 0,-12.04538 -0.22445,-1.57116 -1.24475,-2.95149 -1.50567,-4.51701 -2.85425,-17.1255 2.80079,5.39102 -1.50567,-7.52836 -0.15871,-0.47613 0,-1.00378 0,-1.50567 -0.50189,-1.00378 -1.00378,-2.00756 -1.50567,-3.01134 -0.31743,-0.95227 0.70978,-2.30156 0,-3.01134 -0.35489,-0.35489 -1.15078,0.35489 -1.50567,0 -0.35489,-0.35489 0.35489,-1.15078 0,-1.50567 -0.35489,-0.35489 -1.00379,0 -1.50568,0 -0.50189,0 -1.00378,0 -1.50567,0 -7.52835,0 -15.05671,0 -22.58507,0 -19.57372,0 -39.14745,0 -58.72118,0 -6.02268,0 -12.04537,0 -18.06805,0 -3.01135,0 -6.02269,0 -9.03403,0 -1.00378,0 -2.00756,0 -3.01135,0 -0.50189,0 -1.05676,-0.22446 -1.50567,0 -0.63484,0.31742 -0.87082,1.18824 -1.50567,1.50567 -0.4489,0.22445 -1.00378,0 -1.50567,0 -3.01134,0 -6.02268,0 -9.03403,0 -1.67069,10.02415 -1.50567,5.98115 -1.50567,12.04537 0,1.00378 -0.24345,2.03753 0,3.01134 0.27219,1.08875 1.23348,1.92259 1.50567,3.01134 0.24346,0.97381 -0.24345,2.03754 0,3.01135 0.27219,1.08875 1.00378,2.00756 1.50567,3.01134 0.50189,1.50567 1.19442,2.96072 1.50568,4.51701 0.39371,1.96858 -0.63485,4.11815 0,6.02269 0.22445,0.67335 1.28121,0.83231 1.50567,1.50567 0.29364,0.88093 0,7.74167 0,9.03403 0,0.50189 -0.22446,1.05676 0,1.50567 1.86056,3.72112 1.50567,-0.51973 1.50567,3.01134"
       id="path6502"
       inkscape:connector-curvature="0" />
    <path
       style="fill:none;fill-rule:evenodd;stroke:#000000;stroke-width:1px;stroke-linecap:butt;stroke-linejoin:miter;stroke-opacity:1"
       d="m 156.58982,666.91034 c 8.12849,10.83799 0.95852,3.14847 7.52836,7.52836 0.59057,0.39371 0.91509,1.11195 1.50567,1.50567 0.93377,0.62252 2.11353,0.83231 3.01134,1.50567 1.68635,1.26476 2.83066,3.25225 4.51701,4.51701 3.34452,2.50839 6.84233,4.174 10.5397,6.02269 2.00756,1.00378 3.89335,2.30156 6.02269,3.01134 0.47613,0.15871 1.02953,-0.15871 1.50567,0 1.06467,0.35489 1.94667,1.15078 3.01134,1.50567 0.95227,0.31743 2.00756,0 3.01134,0 2.50946,0 5.01891,0 7.52836,0 3.01134,0 6.02269,0 9.03403,0 1.50567,0 3.02647,0.21294 4.51701,0 2.04855,-0.29265 3.97414,-1.21302 6.02269,-1.50567 1.49054,-0.21293 3.02647,0.21294 4.51701,0 2.04855,-0.29265 4.01513,-1.00378 6.02269,-1.50567 4.11096,-1.02774 7.93441,-1.9836 12.04537,-3.01134 2.00756,-0.50189 4.01512,-1.00378 6.02268,-1.50567 1.50568,0 3.0563,0.36518 4.51702,0 0.68859,-0.17215 0.87082,-1.18825 1.50567,-1.50567 0.4489,-0.22446 1.15078,0.35489 1.50567,0 0.35489,-0.35489 -0.22445,-1.05677 0,-1.50568 0.9034,-1.8068 3.61361,-2.7102 4.51701,-4.51701 0.22446,-0.4489 -0.35489,-1.15078 0,-1.50567 0.35489,-0.35489 1.15079,0.35489 1.50568,0 0.35489,-0.35489 -0.22446,-1.05677 0,-1.50567 1.86056,-3.72112 1.50567,0.51972 1.50567,-3.01134"
       id="path6514"
       inkscape:connector-curvature="0" />
    <path
       style="fill:none;fill-rule:evenodd;stroke:#000000;stroke-width:1px;stroke-linecap:butt;stroke-linejoin:miter;stroke-opacity:1"
       d="m 252.95278,662.39333 c 8.03025,0 16.0605,0 24.09075,0 0.55293,0 5.96209,-0.0606 6.02268,0 0.0682,0.0682 0,6.81843 0,7.52835 0,0.67809 -0.22911,4.05879 0,4.51702 0.31742,0.63484 1.18825,0.87082 1.50567,1.50567 0.27225,0.5445 0,6.4811 0,7.52836 0,0.50189 0,1.00378 0,1.50567 0,0.50189 0.35489,1.15078 0,1.50567 -0.35489,0.35489 -1.15078,-0.35489 -1.50567,0 -0.0484,0.0484 0,4.15185 0,4.51701"
       id="path6516"
       inkscape:connector-curvature="0" />
    <path
       style="fill:none;fill-rule:evenodd;stroke:#000000;stroke-width:1px;stroke-linecap:butt;stroke-linejoin:miter;stroke-opacity:1"
       d="m 260.48114,641.31393 c 3.30468,-15.16489 -5.45901,-2.44767 -7.52836,-4.51702 -0.35489,-0.35489 0.35489,-1.15078 0,-1.50567 -0.70978,-0.70978 -2.30156,0.70978 -3.01134,0 -0.35489,-0.35489 0.35489,-1.15078 0,-1.50567 -0.35489,-0.35489 -1.15078,0.35489 -1.50567,0 -0.35489,-0.35489 0.35489,-1.15078 0,-1.50567 -0.35489,-0.35489 -1.15078,0.35489 -1.50567,0 -0.35489,-0.35489 0.35489,-1.15078 0,-1.50567 -0.79356,-0.79356 -1.94667,-1.15078 -3.01134,-1.50567 -0.95227,-0.31743 -2.30157,0.70978 -3.01135,0 -0.35489,-0.35489 0.35489,-1.15078 0,-1.50567 -0.75283,-0.75284 -3.76418,0.75283 -4.51701,0 -0.35489,-0.35489 0.4489,-1.28122 0,-1.50567 -0.94635,-0.47318 -5.07634,0.47317 -6.02269,0 -0.63484,-0.31743 -0.87082,-1.18825 -1.50567,-1.50568 -0.54878,-0.27439 -6.66079,0 -7.52835,0 -6.52458,0 -13.04916,0 -19.57373,0 -3.51323,0 -7.02647,0 -10.5397,0 -0.98939,0 -3.66752,-0.28316 -4.51701,0 -1.06468,0.35489 -1.94668,1.15079 -3.01135,1.50568 -0.58589,0.19529 -4.28335,-0.23367 -4.51701,0 -0.35489,0.35489 0.35489,1.15078 0,1.50567 -0.70978,0.70978 -2.30156,-0.70978 -3.01134,0 0,4.01512 0.50189,-0.50189 -1.50568,1.50567 -0.35489,0.35489 0.35489,1.15078 0,1.50567 -0.35489,0.35489 -1.05676,-0.22445 -1.50567,0 -0.63484,0.31742 -0.87082,1.18825 -1.50567,1.50567 -0.4489,0.22445 -1.05676,-0.22445 -1.50567,0 -0.63485,0.31742 -0.9151,1.11196 -1.50567,1.50567 -0.93378,0.62252 -2.07757,0.88315 -3.01134,1.50567 -0.59058,0.39372 -0.87083,1.18825 -1.50567,1.50567 -0.44891,0.22446 -1.15079,-0.35489 -1.50568,0 -0.35489,0.35489 0.35489,1.15079 0,1.50568 -2.00756,2.00756 -1.50567,-2.50946 -1.50567,1.50567"
       id="path6518"
       inkscape:connector-curvature="0" />
    <path
       style="fill:none;fill-rule:evenodd;stroke:#000000;stroke-width:1px;stroke-linecap:butt;stroke-linejoin:miter;stroke-opacity:1"
       d="m 159.60116,620.23453 c -7.0978,-0.43055 1.77445,5.75391 0,7.52836 -0.35489,0.35489 -1.15078,-0.35489 -1.50567,0 -0.001,10e-4 0.002,4.51019 0,4.51701 -0.22445,0.67336 -1.28122,0.83232 -1.50567,1.50567 -0.31742,0.95227 0,2.00756 0,3.01134 0,0.5019 0.22445,1.05677 0,1.50568 -0.31742,0.63484 -1.18825,0.87082 -1.50567,1.50567 -0.4,0.8 0.4,2.21134 0,3.01134 -0.31743,0.63485 -1.18825,0.87082 -1.50567,1.50567 -0.22446,0.44891 0,1.00378 0,1.50567 0,0.50189 -0.35489,1.15078 0,1.50567 0.0484,0.0484 4.15184,0 4.51701,0 8.53214,0 17.06428,0 25.59641,0"
       id="path6520"
       inkscape:connector-curvature="0" />
  </g>
</svg>
